<svg width="18" height="18" viewBox="0 0 18 18" fill="none" xmlns="http://www.w3.org/2000/svg">
<g clip-path="url(#clip0_101_14097)">
<path d="M16.9087 6.86531H16.221V6.82988H8.53735V10.2448H13.3622C12.6583 12.2327 10.7669 13.6598 8.53735 13.6598C5.7085 13.6598 3.41494 11.3662 3.41494 8.53735C3.41494 5.7085 5.7085 3.41494 8.53735 3.41494C9.84314 3.41494 11.0311 3.90755 11.9356 4.71219L14.3504 2.2974C12.8257 0.876359 10.7861 0 8.53735 0C3.8226 0 0 3.8226 0 8.53735C0 13.2521 3.8226 17.0747 8.53735 17.0747C13.2521 17.0747 17.0747 13.2521 17.0747 8.53735C17.0747 7.96492 17.0158 7.40615 16.9087 6.86531Z" fill="#FFC107"/>
<path d="M0.98378 4.56364L3.78873 6.62072C4.5477 4.74165 6.38579 3.41494 8.53678 3.41494C9.84256 3.41494 11.0305 3.90755 11.9351 4.71219L14.3499 2.2974C12.8251 0.876359 10.7855 0 8.53678 0C5.25758 0 2.41379 1.85132 0.98378 4.56364Z" fill="#FF3D00"/>
<path d="M8.53748 17.075C10.7427 17.075 12.7464 16.2311 14.2613 14.8587L11.619 12.6228C10.7331 13.2965 9.65052 13.6609 8.53748 13.66C6.31692 13.66 4.43144 12.2441 3.72113 10.2682L0.937103 12.4132C2.35004 15.178 5.21944 17.075 8.53748 17.075Z" fill="#4CAF50"/>
<path d="M16.9086 6.86533H16.221V6.8299H8.53734V10.2448H13.3622C13.0255 11.191 12.419 12.0177 11.6176 12.6229L11.6189 12.6221L14.2612 14.858C14.0742 15.0279 17.0747 12.806 17.0747 8.53737C17.0747 7.96494 17.0158 7.40617 16.9086 6.86533Z" fill="#1976D2"/>
</g>
<defs>
<clipPath id="clip0_101_14097">
<rect width="17.075" height="17.075" rx="8.5375" fill="white"/>
</clipPath>
</defs>
</svg>
